<?xml version="1.0" encoding="utf-8"?>
<!-- Generator: Adobe Illustrator 21.0.2, SVG Export Plug-In . SVG Version: 6.00 Build 0)  -->
<svg version="1.1" id="Layer_1" xmlns="http://www.w3.org/2000/svg" xmlns:xlink="http://www.w3.org/1999/xlink" x="0px" y="0px"
	 viewBox="0 0 500 500" style="enable-background:new 0 0 500 500;" xml:space="preserve">
<style type="text/css">
	.st0{fill:#7BAEFA;}
	.st1{fill:#69C091;}
	.st2{fill:#7CAEFA;}
	.st3{fill:#FB7F7B;}
	.st4{fill:#6ABE91;}
	.st5{fill:#FDD06A;}
</style>
<g>
	<path class="st0" d="M236.3,120.2c0-1.1,0.8-1.7,2-1.7c3.6,0,7.4,0,11.1,0c1.2,0,1.8,0.6,1.8,1.7c0,3.5,0,7.1,0,10.5
		c0,1.1-0.7,1.7-1.8,1.7c-1.8,0-3.8,0-5.6,0l0,0c-1.8,0-3.6,0-5.4,0c-1.2,0-2-0.6-2-1.7C236.3,127.3,236.3,123.6,236.3,120.2z"/>
	<path class="st0" d="M174.3,108.5c0-1.1,0.8-1.7,2-1.7c3.6,0,7.4,0,11.1,0c1.2,0,1.8,0.6,1.8,1.7c0,3.5,0,7.1,0,10.5
		c0,1.1-0.7,1.7-1.8,1.7c-1.8,0-3.8,0-5.6,0l0,0c-1.8,0-3.6,0-5.4,0c-1.2,0-2-0.6-2-1.7C174.3,115.6,174.3,112,174.3,108.5z"/>
	<path class="st0" d="M21.3,19.5c0-1.1,0.8-1.7,2-1.7c3.6,0,7.4,0,11.1,0c1.2,0,1.8,0.6,1.8,1.7c0,3.5,0,7.1,0,10.5
		c0,1.1-0.7,1.7-1.8,1.7c-1.8,0-3.8,0-5.6,0l0,0c-1.8,0-3.6,0-5.4,0c-1.2,0-2-0.6-2-1.7C21.3,26.6,21.3,23,21.3,19.5z"/>
	<path class="st1" d="M131.2,18.9c1.5-1.6,4.1-1.6,5.8-0.2c0.5,0.5,0.8,0.3,1.2,0c1.7-1.6,4.1-1.7,5.8-0.2c1.7,1.4,1.8,3.9,0.2,5.5
		c-0.5,0.5-0.5,0.8,0,1.1c1.3,1.1,1.7,2.8,1,4.2c-0.7,1.4-2.1,2.4-4.3,2.4c-0.5,0-1.5-0.3-2.1-0.9c-0.5-0.6-0.8-0.5-1.5,0
		c-2.1,2-5.8,1.3-6.8-1.6c-0.5-1.4-0.2-2.8,1-3.9c0.5-0.5,0.5-0.6,0-1.1C129.7,22.9,129.5,20.5,131.2,18.9z"/>
	<path class="st2" d="M205.6,78.1c0.5-0.2,1-0.3,1.5-0.3c0.7,0,0.8-0.3,0.8-0.8c0-2,1.3-3.6,3.3-3.9c2.6-0.5,4.8,1.1,5,3.8
		c0,0.6,0.3,0.8,0.8,0.8c1.5,0,2.6,0.5,3.5,1.7c0.5,0.6,0.5,0.8,0.5,2.2c0,2.5-1,3.6-3.6,3.9c-0.7,0-1,0.3-1,0.9c0,2-1.7,3.8-4,3.9
		c-2.5,0-4.3-1.4-4.3-3.8c0-0.6-0.3-0.9-1-0.8c-2,0.2-3.6-1.3-4.1-3.1C203,80.6,204,78.7,205.6,78.1z"/>
	<path class="st2" d="M308,47.3c0.5-0.2,1-0.3,1.5-0.3c0.7,0,0.8-0.3,0.8-0.8c0-2,1.3-3.6,3.3-3.9c2.6-0.5,4.8,1.1,5,3.8
		c0,0.6,0.3,0.8,0.8,0.8c1.5,0,2.6,0.5,3.5,1.7c0.5,0.6,0.5,0.8,0.5,2.2c0,2.5-1,3.6-3.6,3.9c-0.7,0-1,0.3-1,0.9c0,2-1.7,3.8-4,3.9
		c-2.5,0-4.3-1.4-4.3-3.8c0-0.6-0.3-0.9-1-0.8c-2,0.2-3.6-1.3-4.1-3.1C305.3,50,306.3,47.9,308,47.3z"/>
	<path class="st3" d="M185.2,165.7c1.5-1.6,4.1-1.7,5.8-0.2c0.5,0.5,0.8,0.5,1.3,0c1.5-1.6,4.1-1.6,5.8-0.2c1.7,1.4,1.8,3.9,0.2,5.5
		c-0.5,0.6-0.5,0.8,0,1.3c1.3,1.1,1.5,2.8,0.8,4.4c-0.7,1.3-2.1,2.2-3.8,2.2c-1,0-2-0.3-2.8-0.9c-0.5-0.5-0.8-0.5-1.3,0
		c-2.1,2-5.6,1.4-6.8-1.3c-0.7-1.4-0.3-3,0.8-4.1c0.5-0.5,0.5-0.8,0-1.3C183.7,169.8,183.7,167.3,185.2,165.7z"/>
	<path class="st3" d="M237,172.1L237,172.1c0-2.4,0-4.6,0-6.9c0-1.6,1.3-2.4,2.8-1.6c0.3,0.2,0.5,0.3,0.8,0.5c4,2,7.8,4.2,11.7,6.4
		c1.5,0.8,1.7,2.2,0,3.1c-4.1,2.2-8.3,4.6-12.4,6.7c-0.3,0.2-0.5,0.3-0.8,0.3c-1.2,0.3-2.1-0.3-2.1-1.6c0-1.9,0-3.8,0-5.7
		C237,173.1,237,172.6,237,172.1z"/>
	<path class="st4" d="M133.8,79.8c0-0.8,0.5-1.3,1.3-1.6c4-2.2,7.9-4.4,12-6.6c0.2-0.2,0.5-0.3,0.8-0.3c1.3-0.5,2.5,0.2,2.5,1.4
		c0,2,0,4.2,0,6.3v0.8l0,0c0,2.5,0,4.9,0,7.2c0,1.1-1.3,1.9-2.6,1.3c-0.8-0.5-1.5-0.8-2.3-1.3c-3.5-1.9-6.9-3.8-10.4-5.7
		C134.3,81.1,133.8,80.6,133.8,79.8z"/>
	<path class="st4" d="M182.5,32.3c0-0.8,0.5-1.3,1.3-1.6c4-2.2,7.9-4.4,12-6.6c0.2-0.2,0.5-0.3,0.8-0.3c1.3-0.5,2.5,0.2,2.5,1.4
		c0,2,0,4.2,0,6.3v0.8l0,0c0,2.5,0,4.9,0,7.2c0,1.1-1.3,1.9-2.6,1.3c-0.8-0.5-1.5-0.8-2.3-1.3c-3.5-1.9-6.9-3.8-10.4-5.7
		C183,33.5,182.5,33.1,182.5,32.3z"/>
	<path class="st3" d="M262.9,87.5L262.9,87.5c0-2.4,0-4.6,0-6.9c0-1.6,1.3-2.4,2.8-1.6c0.3,0.2,0.5,0.3,0.8,0.5c4,2,7.8,4.2,11.7,6.4
		c1.5,0.8,1.7,2.2,0,3.1c-4.1,2.2-8.3,4.6-12.4,6.7c-0.3,0.2-0.5,0.3-0.8,0.3c-1.2,0.3-2.1-0.3-2.1-1.6c0-1.9,0-3.8,0-5.7
		C262.9,88.5,262.9,88,262.9,87.5z"/>
	<path class="st3" d="M306.1,113.2L306.1,113.2c0-2.4,0-4.6,0-6.9c0-1.6,1.3-2.4,2.8-1.6c0.3,0.2,0.5,0.3,0.8,0.5
		c4,2,7.8,4.2,11.7,6.4c1.5,0.8,1.7,2.2,0,3.1c-4.1,2.2-8.3,4.6-12.4,6.7c-0.3,0.2-0.5,0.3-0.8,0.3c-1.2,0.3-2.1-0.3-2.1-1.6
		c0-1.9,0-3.8,0-5.7C306.1,114.1,306.1,113.7,306.1,113.2z"/>
	<path class="st1" d="M287.8,161.2c0-3.8,3.3-6.9,7.4-6.9s7.6,3,7.6,6.9c0,3.8-3.3,6.9-7.4,6.9S287.8,164.9,287.8,161.2z"/>
	<path class="st5" d="M241.3,29.5c-1.5-1.4-1.5-3.8,0.2-5c1.5-1.3,4.1-1.1,5.3,0.5c0.7,1.1,1.7,1.6,2.8,2.2c1.3,0.6,2,1.7,2.1,3
		c0,1.7-1,2.7-2.3,3.5c-0.5,0.3-1,0.5-1.5,0.8c-0.8,0.6-0.8,1.3,0,1.7c0.7,0.5,1.3,0.6,1.8,1.1c2.6,1.6,2.5,4.6-0.2,6.1
		c-0.5,0.3-1,0.5-1.5,0.8c-0.5,0.3-0.8,0.6-1,1.1c-1,1.4-3.1,2.2-4.6,1.4c-1.8-0.8-2.6-2.5-2-4.2c0.3-0.8,0.8-1.3,1.5-1.7
		c0.7-0.5,0.7-0.6,0-1.1c-1.2-0.8-2.1-1.4-2.5-2.8c-0.5-1.9-0.2-3.6,1.5-4.9c0.2-0.2,0.3-0.2,0.5-0.3c0.3-0.3,1-0.5,1-0.9
		C242.3,29.8,241.6,29.8,241.3,29.5z"/>
	<path class="st5" d="M68.3,119.7c-1.5-1.4-1.5-3.8,0.2-5c1.5-1.3,4.1-1.1,5.3,0.5c0.7,1.1,1.7,1.6,2.8,2.2c1.3,0.6,2,1.7,2.1,3
		c0,1.7-1,2.7-2.3,3.5c-0.5,0.3-1,0.5-1.5,0.8c-0.8,0.6-0.8,1.3,0,1.7c0.7,0.5,1.3,0.6,1.8,1.1c2.6,1.6,2.5,4.6-0.2,6.1
		c-0.5,0.3-1,0.5-1.5,0.8c-0.5,0.3-0.8,0.6-1,1.1c-1,1.4-3.1,2.2-4.6,1.4c-1.8-0.8-2.6-2.5-2-4.2c0.3-0.8,0.8-1.3,1.5-1.7
		s0.7-0.6,0-1.1c-1.2-0.8-2.1-1.4-2.5-2.8c-0.5-1.9-0.2-3.6,1.5-4.9c0.2-0.2,0.3-0.2,0.5-0.3c0.3-0.3,1-0.5,1-0.9
		C69.3,120,68.7,120,68.3,119.7z"/>
	<path class="st5" d="M181.7,145c0-2.4,1.7-4.1,4.3-4.1c4.1,0,8.4,0,12.5,0c2,0,3.8,1.3,4.1,2.8c0.3,1.9,0.2,3.1-1.8,4.4
		c-0.7,0.5-1.5,0.6-2.1,0.6c-2.1,0-4.3,0-6.3,0h-3.1c-1,0-2,0-3.1,0C183.5,148.8,181.7,147.2,181.7,145z"/>
	<path class="st0" d="M339.3,94.6"/>
	<path class="st2" d="M88.3,56c0.5-0.2,1-0.3,1.5-0.3c0.7,0,0.8-0.3,0.8-0.8c0-2,1.3-3.6,3.3-3.9c2.6-0.5,4.8,1.1,5,3.8
		c0,0.6,0.3,0.8,0.8,0.8c1.5,0,2.6,0.5,3.5,1.7c0.5,0.6,0.5,0.8,0.5,2.2c0,2.5-1,3.6-3.6,3.9c-0.7,0-1,0.3-1,0.9c0,2-1.7,3.8-4,3.9
		c-2.5,0-4.3-1.4-4.3-3.8c0-0.6-0.3-0.9-1-0.8c-2,0.2-3.6-1.3-4.1-3.1C85.6,58.7,86.6,56.8,88.3,56z"/>
	<path class="st1" d="M124.8,107.3c1.5-1.6,4.1-1.6,5.8-0.2c0.5,0.5,0.8,0.3,1.2,0c1.7-1.6,4.1-1.7,5.8-0.2c1.7,1.4,1.8,3.9,0.2,5.5
		c-0.5,0.5-0.5,0.8,0,1.1c1.3,1.1,1.7,2.8,1,4.2c-0.7,1.4-2.1,2.4-4.3,2.4c-0.5,0-1.5-0.3-2.1-0.9c-0.5-0.6-0.8-0.5-1.5,0
		c-2.1,2-5.8,1.3-6.8-1.6c-0.5-1.4-0.2-2.8,1-3.9c0.5-0.5,0.5-0.6,0-1.1C123.3,111.4,123.3,109,124.8,107.3z"/>
	<path class="st4" d="M127.4,168.4c0-0.8,0.5-1.3,1.3-1.6c4-2.2,7.9-4.4,12-6.6c0.2-0.2,0.5-0.3,0.8-0.3c1.3-0.5,2.5,0.2,2.5,1.4
		c0,2,0,4.2,0,6.3v0.8l0,0c0,2.5,0,4.9,0,7.2c0,1.1-1.3,1.9-2.6,1.3c-0.8-0.5-1.5-0.8-2.3-1.3c-3.5-1.9-6.9-3.8-10.4-5.7
		C128.1,169.6,127.4,169.2,127.4,168.4z"/>
	<path class="st3" d="M39.8,86.3L39.8,86.3c0-2.4,0-4.6,0-6.9c0-1.6,1.3-2.4,2.8-1.6c0.3,0.2,0.5,0.3,0.8,0.5c4,2,7.8,4.2,11.7,6.4
		c1.5,0.8,1.7,2.2,0,3.1c-4.1,2.2-8.3,4.6-12.4,6.7c-0.3,0.2-0.5,0.3-0.8,0.3c-1.2,0.3-2.1-0.3-2.1-1.6c0-1.9,0-3.8,0-5.7
		C39.8,87.2,39.8,86.8,39.8,86.3z"/>
	<path class="st3" d="M27.9,140.9L27.9,140.9c0-2.4,0-4.6,0-6.9c0-1.6,1.3-2.4,2.8-1.6c0.3,0.2,0.5,0.3,0.8,0.5c4,2,7.8,4.2,11.7,6.4
		c1.5,0.8,1.7,2.2,0,3.1c-4.1,2.2-8.3,4.6-12.4,6.7c-0.3,0.2-0.5,0.3-0.8,0.3c-1.2,0.3-2.1-0.3-2.1-1.6c0-1.9,0-3.8,0-5.7
		C27.9,141.9,27.9,141.4,27.9,140.9z"/>
	<path class="st3" d="M96.4,101.5c0.2-3.8,3.5-6.9,7.8-6.7c4.1,0,7.3,3.3,7.3,7.2c0,3.8-3.8,7.1-7.8,6.7
		C99.5,108.6,96.4,105.4,96.4,101.5z"/>
	<path class="st1" d="M64.7,159.9c0-3.8,3.3-6.9,7.4-6.9c4.1,0,7.6,3,7.6,6.9c0,3.8-3.3,6.9-7.4,6.9
		C68.1,166.8,64.7,163.7,64.7,159.9z"/>
	<path class="st1" d="M57.2,42.2c0-3.8,3.3-6.9,7.4-6.9c4.1,0,7.6,3,7.6,6.9c0,3.8-3.3,6.9-7.4,6.9C60.6,49.1,57.2,46,57.2,42.2z"/>
	<path class="st0" d="M101.7,79.4"/>
	<path class="st3" d="M182.7,211.4c-1.5,1.6-4.1,1.7-5.8,0.2c-0.5-0.5-0.8-0.5-1.3,0c-1.5,1.6-4.1,1.6-5.8,0.2
		c-1.7-1.4-1.8-3.9-0.2-5.5c0.5-0.6,0.5-0.8,0-1.3c-1.3-1.1-1.5-2.8-0.8-4.4c0.7-1.3,2.1-2.2,3.8-2.2c1,0,2,0.3,2.8,0.9
		c0.5,0.5,0.8,0.5,1.3,0c2.1-2,5.6-1.4,6.8,1.3c0.7,1.4,0.3,3-0.8,4.1c-0.5,0.5-0.5,0.8,0,1.3C184.2,207.5,184.2,209.8,182.7,211.4z"
		/>
	<path class="st3" d="M130.7,205L130.7,205c0,2.4,0,4.6,0,6.9c0,1.6-1.3,2.4-2.8,1.6c-0.3-0.2-0.5-0.3-0.8-0.5c-4-2-7.8-4.2-11.7-6.4
		c-1.5-0.8-1.7-2.2,0-3.1c4.1-2.2,8.3-4.6,12.4-6.7c0.3-0.2,0.5-0.3,0.8-0.3c1.2-0.3,2.1,0.3,2.1,1.6c0,1.9,0,3.8,0,5.7
		C130.7,204,130.7,204.5,130.7,205z"/>
	<path class="st3" d="M44.4,198.1L44.4,198.1c0,2.4,0,4.6,0,6.9c0,1.6-1.3,2.4-2.8,1.6c-0.3-0.2-0.5-0.3-0.8-0.5
		c-4-2-7.8-4.2-11.7-6.4c-1.5-0.8-1.7-2.2,0-3.1c4.1-2.2,8.3-4.6,12.4-6.7c0.3-0.2,0.5-0.3,0.8-0.3c1.2-0.3,2.1,0.3,2.1,1.6
		c0,1.9,0,3.8,0,5.7C44.4,197.1,44.4,197.6,44.4,198.1z"/>
	<path class="st1" d="M80,216.1c0,3.8-3.3,6.9-7.4,6.9c-4.1,0-7.6-3-7.6-6.9c0-3.8,3.3-6.9,7.4-6.9C76.6,209.2,80,212.3,80,216.1z"/>
	<path class="st1" d="M285.9,146.7c-1.5,1.6-4.1,1.6-5.8,0.2c-0.5-0.5-0.8-0.3-1.2,0c-1.7,1.6-4.1,1.7-5.8,0.2
		c-1.7-1.4-1.8-3.9-0.2-5.5c0.5-0.5,0.5-0.8,0-1.1c-1.3-1.1-1.7-2.8-1-4.2c0.7-1.4,2.1-2.4,4.3-2.4c0.5,0,1.5,0.3,2.1,0.9
		c0.5,0.6,0.8,0.5,1.5,0c2.1-2,5.8-1.3,6.8,1.6c0.5,1.4,0.2,2.8-1,3.9c-0.5,0.5-0.5,0.6,0,1.1C287.6,142.8,287.6,145.2,285.9,146.7z"
		/>
	<path class="st4" d="M240.3,208.9c0,0.8-0.5,1.3-1.3,1.6c-4,2.2-7.9,4.4-12,6.6c-0.2,0.2-0.5,0.3-0.8,0.3c-1.3,0.5-2.5-0.2-2.5-1.4
		c0-2,0-4.2,0-6.3v-0.8l0,0c0-2.5,0-4.9,0-7.2c0-1.1,1.3-1.9,2.6-1.3c0.8,0.5,1.5,0.8,2.3,1.3c3.5,1.9,6.9,3.8,10.4,5.7
		C239.8,207.6,240.3,208.1,240.3,208.9z"/>
	<path class="st1" d="M303.2,217.2c0,3.8-3.3,6.9-7.4,6.9s-7.6-3-7.6-6.9c0-3.8,3.3-6.9,7.4-6.9C299.7,210.3,303.2,213.4,303.2,217.2
		z"/>
	<path class="st0" d="M339.3,22.5c0-1.1,0.8-1.7,2-1.7c3.6,0,7.4,0,11.1,0c1.2,0,1.8,0.6,1.8,1.7c0,3.5,0,7.1,0,10.5
		c0,1.1-0.7,1.7-1.8,1.7c-1.8,0-3.8,0-5.6,0l0,0c-1.8,0-3.6,0-5.4,0c-1.2,0-2-0.6-2-1.7C339.3,29.6,339.3,25.9,339.3,22.5z"/>
	<path class="st1" d="M449.2,21.9c1.5-1.6,4.1-1.6,5.8-0.2c0.5,0.5,0.8,0.3,1.2,0c1.7-1.6,4.1-1.7,5.8-0.2c1.7,1.4,1.8,3.9,0.2,5.5
		c-0.5,0.5-0.5,0.8,0,1.1c1.3,1.1,1.7,2.8,1,4.2c-0.7,1.4-2.1,2.4-4.3,2.4c-0.5,0-1.5-0.3-2.1-0.9c-0.5-0.6-0.8-0.5-1.5,0
		c-2.1,2-5.8,1.3-6.8-1.6c-0.5-1.4-0.2-2.8,1-3.9c0.5-0.5,0.5-0.6,0-1.1C447.7,25.8,447.6,23.5,449.2,21.9z"/>
	<path class="st4" d="M451.9,82.8c0-0.8,0.5-1.3,1.3-1.6c4-2.2,7.9-4.4,12-6.6c0.2-0.2,0.5-0.3,0.8-0.3c1.3-0.5,2.5,0.2,2.5,1.4
		c0,2,0,4.2,0,6.3v0.8l0,0c0,2.5,0,4.9,0,7.2c0,1.1-1.3,1.9-2.6,1.3c-0.8-0.5-1.5-0.8-2.3-1.3c-3.5-1.9-6.9-3.8-10.4-5.7
		C452.4,84.1,451.9,83.6,451.9,82.8z"/>
	<path class="st5" d="M386.4,122.6c-1.5-1.4-1.5-3.8,0.2-5c1.5-1.3,4.1-1.1,5.3,0.5c0.7,1.1,1.7,1.6,2.8,2.2c1.3,0.6,2,1.7,2.1,3
		c0,1.7-1,2.7-2.3,3.5c-0.5,0.3-1,0.5-1.5,0.8c-0.8,0.6-0.8,1.3,0,1.7c0.7,0.5,1.3,0.6,1.8,1.1c2.6,1.6,2.5,4.6-0.2,6.1
		c-0.5,0.3-1,0.5-1.5,0.8s-0.8,0.6-1,1.1c-1,1.4-3.1,2.2-4.6,1.4c-1.8-0.8-2.6-2.5-2-4.2c0.3-0.8,0.8-1.3,1.5-1.7
		c0.7-0.5,0.7-0.6,0-1.1c-1.2-0.8-2.1-1.4-2.5-2.8c-0.5-1.9-0.2-3.6,1.5-4.9c0.2-0.2,0.3-0.2,0.5-0.3c0.3-0.3,1-0.5,1-0.9
		C387.3,123,386.7,123,386.4,122.6z"/>
	<path class="st2" d="M406.3,59c0.5-0.2,1-0.3,1.5-0.3c0.7,0,0.8-0.3,0.8-0.8c0-2,1.3-3.6,3.3-3.9c2.6-0.5,4.8,1.1,5,3.8
		c0,0.6,0.3,0.8,0.8,0.8c1.5,0,2.6,0.5,3.5,1.7c0.5,0.6,0.5,0.8,0.5,2.2c0,2.5-1,3.6-3.6,3.9c-0.7,0-1,0.3-1,0.9c0,2-1.7,3.8-4,3.9
		c-2.5,0-4.3-1.4-4.3-3.8c0-0.6-0.3-0.9-1-0.8c-2,0.2-3.6-1.3-4.1-3.1C403.7,61.6,404.7,59.8,406.3,59z"/>
	<path class="st1" d="M442.8,110.3c1.5-1.6,4.1-1.6,5.8-0.2c0.5,0.5,0.8,0.3,1.2,0c1.7-1.6,4.1-1.7,5.8-0.2c1.7,1.4,1.8,3.9,0.2,5.5
		c-0.5,0.5-0.5,0.8,0,1.1c1.3,1.1,1.7,2.8,1,4.2c-0.7,1.4-2.1,2.4-4.3,2.4c-0.5,0-1.5-0.3-2.1-0.9c-0.5-0.6-0.8-0.5-1.5,0
		c-2.1,2-5.8,1.3-6.8-1.6c-0.5-1.4-0.2-2.8,1-3.9c0.5-0.5,0.5-0.6,0-1.1C441.3,114.4,441.3,112,442.8,110.3z"/>
	<path class="st4" d="M445.4,171.4c0-0.8,0.5-1.3,1.3-1.6c4-2.2,7.9-4.4,12-6.6c0.2-0.2,0.5-0.3,0.8-0.3c1.3-0.5,2.5,0.2,2.5,1.4
		c0,2,0,4.2,0,6.3v0.8l0,0c0,2.5,0,4.9,0,7.2c0,1.1-1.3,1.9-2.6,1.3c-0.8-0.5-1.5-0.8-2.3-1.3c-3.5-1.9-6.9-3.8-10.4-5.7
		C446.1,172.6,445.4,172.1,445.4,171.4z"/>
	<path class="st3" d="M357.8,89.3L357.8,89.3c0-2.4,0-4.6,0-6.9c0-1.6,1.3-2.4,2.8-1.6c0.3,0.2,0.5,0.3,0.8,0.5c4,2,7.8,4.2,11.7,6.4
		c1.5,0.8,1.7,2.2,0,3.1c-4.1,2.2-8.3,4.6-12.4,6.7c-0.3,0.2-0.5,0.3-0.8,0.3c-1.2,0.3-2.1-0.3-2.1-1.6c0-1.9,0-3.8,0-5.7
		C357.8,90.2,357.8,89.7,357.8,89.3z"/>
	<path class="st3" d="M345.9,143.9L345.9,143.9c0-2.4,0-4.6,0-6.9c0-1.6,1.3-2.4,2.8-1.6c0.3,0.2,0.5,0.3,0.8,0.5
		c4,2,7.8,4.2,11.7,6.4c1.5,0.8,1.7,2.2,0,3.1c-4.1,2.2-8.3,4.6-12.4,6.7c-0.3,0.2-0.5,0.3-0.8,0.3c-1.2,0.3-2.1-0.3-2.1-1.6
		c0-1.9,0-3.8,0-5.7C345.9,144.9,345.9,144.4,345.9,143.9z"/>
	<path class="st3" d="M414.4,104.5c0.2-3.8,3.5-6.9,7.8-6.7c4.1,0,7.3,3.3,7.3,7.2c0,3.8-3.8,7.1-7.8,6.7
		C417.5,111.6,414.4,108.4,414.4,104.5z"/>
	<path class="st1" d="M382.7,162.9c0-3.8,3.3-6.9,7.4-6.9c4.1,0,7.6,3,7.6,6.9c0,3.8-3.3,6.9-7.4,6.9
		C386.2,169.8,382.7,166.7,382.7,162.9z"/>
	<path class="st1" d="M375.2,45.2c0-3.8,3.3-6.9,7.4-6.9s7.6,3,7.6,6.9c0,3.8-3.3,6.9-7.4,6.9C378.7,52.1,375.2,49,375.2,45.2z"/>
	<path class="st0" d="M419.7,82.4"/>
	<path class="st3" d="M448.7,207.9L448.7,207.9c0,2.4,0,4.6,0,6.9c0,1.6-1.3,2.4-2.8,1.6c-0.3-0.2-0.5-0.3-0.8-0.5
		c-4-2-7.8-4.2-11.7-6.4c-1.5-0.8-1.7-2.2,0-3.1c4.1-2.2,8.3-4.6,12.4-6.7c0.3-0.2,0.5-0.3,0.8-0.3c1.2-0.3,2.1,0.3,2.1,1.6
		c0,1.9,0,3.8,0,5.7C448.7,207,448.7,207.5,448.7,207.9z"/>
	<path class="st3" d="M362.5,201L362.5,201c0,2.4,0,4.6,0,6.9c0,1.6-1.3,2.4-2.8,1.6c-0.3-0.2-0.5-0.3-0.8-0.5c-4-2-7.8-4.2-11.7-6.4
		c-1.5-0.8-1.7-2.2,0-3.1c4.1-2.2,8.3-4.6,12.4-6.7c0.3-0.2,0.5-0.3,0.8-0.3c1.2-0.3,2.1,0.3,2.1,1.6c0,1.9,0,3.8,0,5.7
		C362.5,200.1,362.5,200.6,362.5,201z"/>
	<path class="st1" d="M398.1,219.1c0,3.8-3.3,6.9-7.4,6.9c-4.1,0-7.6-3-7.6-6.9c0-3.8,3.3-6.9,7.4-6.9S398.1,215.3,398.1,219.1z"/>
	<path class="st0" d="M236.3,352.3c0-1.1,0.8-1.7,2-1.7c3.6,0,7.4,0,11.1,0c1.2,0,1.8,0.6,1.8,1.7c0,3.5,0,7.1,0,10.5
		c0,1.1-0.7,1.7-1.8,1.7c-1.8,0-3.8,0-5.6,0l0,0c-1.8,0-3.6,0-5.4,0c-1.2,0-2-0.6-2-1.7C236.3,359.4,236.3,355.8,236.3,352.3z"/>
	<path class="st0" d="M174.3,340.7c0-1.1,0.8-1.7,2-1.7c3.6,0,7.4,0,11.1,0c1.2,0,1.8,0.6,1.8,1.7c0,3.5,0,7.1,0,10.5
		c0,1.1-0.7,1.7-1.8,1.7c-1.8,0-3.8,0-5.6,0l0,0c-1.8,0-3.6,0-5.4,0c-1.2,0-2-0.6-2-1.7C174.3,347.7,174.3,344.1,174.3,340.7z"/>
	<path class="st0" d="M21.3,251.6c0-1.1,0.8-1.7,2-1.7c3.6,0,7.4,0,11.1,0c1.2,0,1.8,0.6,1.8,1.7c0,3.5,0,7.1,0,10.5
		c0,1.1-0.7,1.7-1.8,1.7c-1.8,0-3.8,0-5.6,0l0,0c-1.8,0-3.6,0-5.4,0c-1.2,0-2-0.6-2-1.7C21.3,258.7,21.3,255.1,21.3,251.6z"/>
	<path class="st1" d="M131.2,251.1c1.5-1.6,4.1-1.6,5.8-0.2c0.5,0.5,0.8,0.3,1.2,0c1.7-1.6,4.1-1.7,5.8-0.2c1.7,1.4,1.8,3.9,0.2,5.5
		c-0.5,0.5-0.5,0.8,0,1.1c1.3,1.1,1.7,2.8,1,4.2c-0.7,1.4-2.1,2.4-4.3,2.4c-0.5,0-1.5-0.3-2.1-0.9c-0.5-0.6-0.8-0.5-1.5,0
		c-2.1,2-5.8,1.3-6.8-1.6c-0.5-1.4-0.2-2.8,1-3.9c0.5-0.5,0.5-0.6,0-1.1C129.7,255,129.5,252.6,131.2,251.1z"/>
	<path class="st2" d="M205.6,310.2c0.5-0.2,1-0.3,1.5-0.3c0.7,0,0.8-0.3,0.8-0.8c0-2,1.3-3.6,3.3-3.9c2.6-0.5,4.8,1.1,5,3.8
		c0,0.6,0.3,0.8,0.8,0.8c1.5,0,2.6,0.5,3.5,1.7c0.5,0.6,0.5,0.8,0.5,2.2c0,2.5-1,3.6-3.6,3.9c-0.7,0-1,0.3-1,0.9c0,2-1.7,3.8-4,3.9
		c-2.5,0-4.3-1.4-4.3-3.8c0-0.6-0.3-0.9-1-0.8c-2,0.2-3.6-1.3-4.1-3.1C203,312.8,204,310.9,205.6,310.2z"/>
	<path class="st2" d="M308,279.4c0.5-0.2,1-0.3,1.5-0.3c0.7,0,0.8-0.3,0.8-0.8c0-2,1.3-3.6,3.3-3.9c2.6-0.5,4.8,1.1,5,3.8
		c0,0.6,0.3,0.8,0.8,0.8c1.5,0,2.6,0.5,3.5,1.7c0.5,0.6,0.5,0.8,0.5,2.2c0,2.5-1,3.6-3.6,3.9c-0.7,0-1,0.3-1,0.9c0,2-1.7,3.8-4,3.9
		c-2.5,0-4.3-1.4-4.3-3.8c0-0.6-0.3-0.9-1-0.8c-2,0.2-3.6-1.3-4.1-3.1C305.3,282.1,306.3,280.1,308,279.4z"/>
	<path class="st3" d="M185.2,397.8c1.5-1.6,4.1-1.7,5.8-0.2c0.5,0.5,0.8,0.5,1.3,0c1.5-1.6,4.1-1.6,5.8-0.2c1.7,1.4,1.8,3.9,0.2,5.5
		c-0.5,0.6-0.5,0.8,0,1.3c1.3,1.1,1.5,2.8,0.8,4.4c-0.7,1.3-2.1,2.2-3.8,2.2c-1,0-2-0.3-2.8-0.9c-0.5-0.5-0.8-0.5-1.3,0
		c-2.1,2-5.6,1.4-6.8-1.3c-0.7-1.4-0.3-3,0.8-4.1c0.5-0.5,0.5-0.8,0-1.3C183.7,401.9,183.7,399.4,185.2,397.8z"/>
	<path class="st3" d="M237,404.3L237,404.3c0-2.4,0-4.6,0-6.9c0-1.6,1.3-2.4,2.8-1.6c0.3,0.2,0.5,0.3,0.8,0.5c4,2,7.8,4.2,11.7,6.4
		c1.5,0.8,1.7,2.2,0,3.1c-4.1,2.2-8.3,4.6-12.4,6.7c-0.3,0.2-0.5,0.3-0.8,0.3c-1.2,0.3-2.1-0.3-2.1-1.6c0-1.9,0-3.8,0-5.7
		C237,405.2,237,404.7,237,404.3z"/>
	<path class="st4" d="M133.8,312c0-0.8,0.5-1.3,1.3-1.6c4-2.2,7.9-4.4,12-6.6c0.2-0.2,0.5-0.3,0.8-0.3c1.3-0.5,2.5,0.2,2.5,1.4
		c0,2,0,4.2,0,6.3v0.8l0,0c0,2.5,0,4.9,0,7.2c0,1.1-1.3,1.9-2.6,1.3c-0.8-0.5-1.5-0.8-2.3-1.3c-3.5-1.9-6.9-3.8-10.4-5.7
		C134.3,313.2,133.8,312.8,133.8,312z"/>
	<path class="st4" d="M80,249.6c0-0.8,0.5-1.3,1.3-1.6c4-2.2,7.9-4.4,12-6.6c0.2-0.2,0.5-0.3,0.8-0.3c1.3-0.5,2.5,0.2,2.5,1.4
		c0,2,0,4.2,0,6.3v0.8l0,0c0,2.5,0,4.9,0,7.2c0,1.1-1.3,1.9-2.6,1.3c-0.8-0.5-1.5-0.8-2.3-1.3c-3.5-1.9-6.9-3.8-10.4-5.7
		C80.5,250.9,80,250.4,80,249.6z"/>
	<path class="st4" d="M182.5,264.4c0-0.8,0.5-1.3,1.3-1.6c4-2.2,7.9-4.4,12-6.6c0.2-0.2,0.5-0.3,0.8-0.3c1.3-0.5,2.5,0.2,2.5,1.4
		c0,2,0,4.2,0,6.3v0.8l0,0c0,2.5,0,4.9,0,7.2c0,1.1-1.3,1.9-2.6,1.3c-0.8-0.5-1.5-0.8-2.3-1.3c-3.5-1.9-6.9-3.8-10.4-5.7
		C183,265.7,182.5,265.2,182.5,264.4z"/>
	<path class="st3" d="M262.9,319.7L262.9,319.7c0-2.4,0-4.6,0-6.9c0-1.6,1.3-2.4,2.8-1.6c0.3,0.2,0.5,0.3,0.8,0.5
		c4,2,7.8,4.2,11.7,6.4c1.5,0.8,1.7,2.2,0,3.1c-4.1,2.2-8.3,4.6-12.4,6.7c-0.3,0.2-0.5,0.3-0.8,0.3c-1.2,0.3-2.1-0.3-2.1-1.6
		c0-1.9,0-3.8,0-5.7C262.9,320.6,262.9,320.1,262.9,319.7z"/>
	<path class="st3" d="M306.1,345.3L306.1,345.3c0-2.4,0-4.6,0-6.9c0-1.6,1.3-2.4,2.8-1.6c0.3,0.2,0.5,0.3,0.8,0.5
		c4,2,7.8,4.2,11.7,6.4c1.5,0.8,1.7,2.2,0,3.1c-4.1,2.2-8.3,4.6-12.4,6.7c-0.3,0.2-0.5,0.3-0.8,0.3c-1.2,0.3-2.1-0.3-2.1-1.6
		c0-1.9,0-3.8,0-5.7C306.1,346.2,306.1,345.8,306.1,345.3z"/>
	<path class="st1" d="M287.8,393.3c0-3.8,3.3-6.9,7.4-6.9s7.6,3,7.6,6.9c0,3.8-3.3,6.9-7.4,6.9S287.8,397,287.8,393.3z"/>
	<path class="st5" d="M241.3,261.6c-1.5-1.4-1.5-3.8,0.2-5c1.5-1.3,4.1-1.1,5.3,0.5c0.7,1.1,1.7,1.6,2.8,2.2c1.3,0.6,2,1.7,2.1,3
		c0,1.7-1,2.7-2.3,3.5c-0.5,0.3-1,0.5-1.5,0.8c-0.8,0.6-0.8,1.3,0,1.7c0.7,0.5,1.3,0.6,1.8,1.1c2.6,1.6,2.5,4.6-0.2,6.1
		c-0.5,0.3-1,0.5-1.5,0.8c-0.5,0.3-0.8,0.6-1,1.1c-1,1.4-3.1,2.2-4.6,1.4c-1.8-0.8-2.6-2.5-2-4.2c0.3-0.8,0.8-1.3,1.5-1.7
		c0.7-0.5,0.7-0.6,0-1.1c-1.2-0.8-2.1-1.4-2.5-2.8c-0.5-1.9-0.2-3.6,1.5-4.9c0.2-0.2,0.3-0.2,0.5-0.3c0.3-0.3,1-0.5,1-0.9
		C242.3,261.9,241.6,261.9,241.3,261.6z"/>
	<path class="st5" d="M68.3,351.8c-1.5-1.4-1.5-3.8,0.2-5c1.5-1.3,4.1-1.1,5.3,0.5c0.7,1.1,1.7,1.6,2.8,2.2c1.3,0.6,2,1.7,2.1,3
		c0,1.7-1,2.7-2.3,3.5c-0.5,0.3-1,0.5-1.5,0.8c-0.8,0.6-0.8,1.3,0,1.7c0.7,0.5,1.3,0.6,1.8,1.1c2.6,1.6,2.5,4.6-0.2,6.1
		c-0.5,0.3-1,0.5-1.5,0.8c-0.5,0.3-0.8,0.6-1,1.1c-1,1.4-3.1,2.2-4.6,1.4c-1.8-0.8-2.6-2.5-2-4.2c0.3-0.8,0.8-1.3,1.5-1.7
		s0.7-0.6,0-1.1c-1.2-0.8-2.1-1.4-2.5-2.8c-0.5-1.9-0.2-3.6,1.5-4.9c0.2-0.2,0.3-0.2,0.5-0.3c0.3-0.3,1-0.5,1-0.9
		C69.3,352.1,68.7,352.1,68.3,351.8z"/>
	<path class="st5" d="M181.7,377.1c0-2.4,1.7-4.1,4.3-4.1c4.1,0,8.4,0,12.5,0c2,0,3.8,1.3,4.1,2.8c0.3,1.9,0.2,3.1-1.8,4.4
		c-0.7,0.5-1.5,0.6-2.1,0.6c-2.1,0-4.3,0-6.3,0h-3.1c-1,0-2,0-3.1,0C183.5,380.9,181.7,379.3,181.7,377.1z"/>
	<path class="st0" d="M339.3,326.7"/>
	<path class="st2" d="M88.3,288.1c0.5-0.2,1-0.3,1.5-0.3c0.7,0,0.8-0.3,0.8-0.8c0-2,1.3-3.6,3.3-3.9c2.6-0.5,4.8,1.1,5,3.8
		c0,0.6,0.3,0.8,0.8,0.8c1.5,0,2.6,0.5,3.5,1.7c0.5,0.6,0.5,0.8,0.5,2.2c0,2.5-1,3.6-3.6,3.9c-0.7,0-1,0.3-1,0.9c0,2-1.7,3.8-4,3.9
		c-2.5,0-4.3-1.4-4.3-3.8c0-0.6-0.3-0.9-1-0.8c-2,0.2-3.6-1.3-4.1-3.1C85.6,290.8,86.6,288.9,88.3,288.1z"/>
	<path class="st1" d="M124.8,339.4c1.5-1.6,4.1-1.6,5.8-0.2c0.5,0.5,0.8,0.3,1.2,0c1.7-1.6,4.1-1.7,5.8-0.2c1.7,1.4,1.8,3.9,0.2,5.5
		c-0.5,0.5-0.5,0.8,0,1.1c1.3,1.1,1.7,2.8,1,4.2c-0.7,1.4-2.1,2.4-4.3,2.4c-0.5,0-1.5-0.3-2.1-0.9c-0.5-0.6-0.8-0.5-1.5,0
		c-2.1,2-5.8,1.3-6.8-1.6c-0.5-1.4-0.2-2.8,1-3.9c0.5-0.5,0.5-0.6,0-1.1C123.3,343.5,123.3,341.2,124.8,339.4z"/>
	<path class="st4" d="M127.4,400.5c0-0.8,0.5-1.3,1.3-1.6c4-2.2,7.9-4.4,12-6.6c0.2-0.2,0.5-0.3,0.8-0.3c1.3-0.5,2.5,0.2,2.5,1.4
		c0,2,0,4.2,0,6.3v0.8l0,0c0,2.5,0,4.9,0,7.2c0,1.1-1.3,1.9-2.6,1.3c-0.8-0.5-1.5-0.8-2.3-1.3c-3.5-1.9-6.9-3.8-10.4-5.7
		C128.1,401.8,127.4,401.3,127.4,400.5z"/>
	<path class="st3" d="M39.8,318.4L39.8,318.4c0-2.4,0-4.6,0-6.9c0-1.6,1.3-2.4,2.8-1.6c0.3,0.2,0.5,0.3,0.8,0.5c4,2,7.8,4.2,11.7,6.4
		c1.5,0.8,1.7,2.2,0,3.1c-4.1,2.2-8.3,4.6-12.4,6.7c-0.3,0.2-0.5,0.3-0.8,0.3c-1.2,0.3-2.1-0.3-2.1-1.6c0-1.9,0-3.8,0-5.7
		C39.8,319.3,39.8,318.9,39.8,318.4z"/>
	<path class="st3" d="M27.9,373.1L27.9,373.1c0-2.4,0-4.6,0-6.9c0-1.6,1.3-2.4,2.8-1.6c0.3,0.2,0.5,0.3,0.8,0.5c4,2,7.8,4.2,11.7,6.4
		c1.5,0.8,1.7,2.2,0,3.1c-4.1,2.2-8.3,4.6-12.4,6.7c-0.3,0.2-0.5,0.3-0.8,0.3c-1.2,0.3-2.1-0.3-2.1-1.6c0-1.9,0-3.8,0-5.7
		C27.9,374,27.9,373.5,27.9,373.1z"/>
	<path class="st3" d="M96.4,333.6c0.2-3.8,3.5-6.9,7.8-6.7c4.1,0,7.3,3.3,7.3,7.2c0,3.8-3.8,7.1-7.8,6.7
		C99.5,340.7,96.4,337.6,96.4,333.6z"/>
	<path class="st3" d="M288.2,249.4c0.2-3.8,3.5-6.9,7.8-6.7c4.1,0,7.3,3.3,7.3,7.2c0,3.8-3.8,7.1-7.8,6.7
		C291.3,256.5,288.2,253.3,288.2,249.4z"/>
	<path class="st1" d="M64.7,392c0-3.8,3.3-6.9,7.4-6.9c4.1,0,7.6,3,7.6,6.9c0,3.8-3.3,6.9-7.4,6.9C68.1,398.9,64.7,395.8,64.7,392z"
		/>
	<path class="st1" d="M57.2,274.3c0-3.8,3.3-6.9,7.4-6.9c4.1,0,7.6,3,7.6,6.9c0,3.8-3.3,6.9-7.4,6.9
		C60.6,281.2,57.2,278.1,57.2,274.3z"/>
	<path class="st0" d="M101.7,311.5"/>
	<path class="st3" d="M182.7,443.5c-1.5,1.6-4.1,1.7-5.8,0.2c-0.5-0.5-0.8-0.5-1.3,0c-1.5,1.6-4.1,1.6-5.8,0.2
		c-1.7-1.4-1.8-3.9-0.2-5.5c0.5-0.6,0.5-0.8,0-1.3c-1.3-1.1-1.5-2.8-0.8-4.4c0.7-1.3,2.1-2.2,3.8-2.2c1,0,2,0.3,2.8,0.9
		c0.5,0.5,0.8,0.5,1.3,0c2.1-2,5.6-1.4,6.8,1.3c0.7,1.4,0.3,3-0.8,4.1c-0.5,0.5-0.5,0.8,0,1.3C184.2,439.6,184.2,441.9,182.7,443.5z"
		/>
	<path class="st3" d="M130.7,437.1L130.7,437.1c0,2.4,0,4.6,0,6.9c0,1.6-1.3,2.4-2.8,1.6c-0.3-0.2-0.5-0.3-0.8-0.5
		c-4-2-7.8-4.2-11.7-6.4c-1.5-0.8-1.7-2.2,0-3.1c4.1-2.2,8.3-4.6,12.4-6.7c0.3-0.2,0.5-0.3,0.8-0.3c1.2-0.3,2.1,0.3,2.1,1.6
		c0,1.9,0,3.8,0,5.7C130.7,436.1,130.7,436.6,130.7,437.1z"/>
	<path class="st3" d="M44.4,430.2L44.4,430.2c0,2.4,0,4.6,0,6.9c0,1.6-1.3,2.4-2.8,1.6c-0.3-0.2-0.5-0.3-0.8-0.5
		c-4-2-7.8-4.2-11.7-6.4c-1.5-0.8-1.7-2.2,0-3.1c4.1-2.2,8.3-4.6,12.4-6.7c0.3-0.2,0.5-0.3,0.8-0.3c1.2-0.3,2.1,0.3,2.1,1.6
		c0,1.9,0,3.8,0,5.7C44.4,429.2,44.4,429.7,44.4,430.2z"/>
	<path class="st1" d="M80,448.2c0,3.8-3.3,6.9-7.4,6.9c-4.1,0-7.6-3-7.6-6.9c0-3.8,3.3-6.9,7.4-6.9C76.6,441.3,80,444.4,80,448.2z"/>
	<path class="st1" d="M285.9,378.9c-1.5,1.6-4.1,1.6-5.8,0.2c-0.5-0.5-0.8-0.3-1.2,0c-1.7,1.6-4.1,1.7-5.8,0.2
		c-1.7-1.4-1.8-3.9-0.2-5.5c0.5-0.5,0.5-0.8,0-1.1c-1.3-1.1-1.7-2.8-1-4.2c0.7-1.4,2.1-2.4,4.3-2.4c0.5,0,1.5,0.3,2.1,0.9
		c0.5,0.6,0.8,0.5,1.5,0c2.1-2,5.8-1.3,6.8,1.6c0.5,1.4,0.2,2.8-1,3.9c-0.5,0.5-0.5,0.6,0,1.1C287.6,374.9,287.6,377.3,285.9,378.9z"
		/>
	<path class="st4" d="M240.3,441c0,0.8-0.5,1.3-1.3,1.6c-4,2.2-7.9,4.4-12,6.6c-0.2,0.2-0.5,0.3-0.8,0.3c-1.3,0.5-2.5-0.2-2.5-1.4
		c0-2,0-4.2,0-6.3V441l0,0c0-2.5,0-4.9,0-7.2c0-1.1,1.3-1.9,2.6-1.3c0.8,0.5,1.5,0.8,2.3,1.3c3.5,1.9,6.9,3.8,10.4,5.7
		C239.8,439.7,240.3,440.2,240.3,441z"/>
	<path class="st1" d="M303.2,449.3c0,3.8-3.3,6.9-7.4,6.9s-7.6-3-7.6-6.9c0-3.8,3.3-6.9,7.4-6.9C299.7,442.4,303.2,445.5,303.2,449.3
		z"/>
	<path class="st0" d="M339.3,254.6c0-1.1,0.8-1.7,2-1.7c3.6,0,7.4,0,11.1,0c1.2,0,1.8,0.6,1.8,1.7c0,3.5,0,7.1,0,10.5
		c0,1.1-0.7,1.7-1.8,1.7c-1.8,0-3.8,0-5.6,0l0,0c-1.8,0-3.6,0-5.4,0c-1.2,0-2-0.6-2-1.7C339.3,261.7,339.3,258.1,339.3,254.6z"/>
	<path class="st1" d="M449.2,254c1.5-1.6,4.1-1.6,5.8-0.2c0.5,0.5,0.8,0.3,1.2,0c1.7-1.6,4.1-1.7,5.8-0.2c1.7,1.4,1.8,3.9,0.2,5.5
		c-0.5,0.5-0.5,0.8,0,1.1c1.3,1.1,1.7,2.8,1,4.2s-2.1,2.4-4.3,2.4c-0.5,0-1.5-0.3-2.1-0.9c-0.5-0.6-0.8-0.5-1.5,0
		c-2.1,2-5.8,1.3-6.8-1.6c-0.5-1.4-0.2-2.8,1-3.9c0.5-0.5,0.5-0.6,0-1.1C447.7,258,447.6,255.6,449.2,254z"/>
	<path class="st4" d="M451.9,314.9c0-0.8,0.5-1.3,1.3-1.6c4-2.2,7.9-4.4,12-6.6c0.2-0.2,0.5-0.3,0.8-0.3c1.3-0.5,2.5,0.2,2.5,1.4
		c0,2,0,4.2,0,6.3v0.8l0,0c0,2.5,0,4.9,0,7.2c0,1.1-1.3,1.9-2.6,1.3c-0.8-0.5-1.5-0.8-2.3-1.3c-3.5-1.9-6.9-3.8-10.4-5.7
		C452.4,316.2,451.9,315.7,451.9,314.9z"/>
	<path class="st5" d="M386.4,354.8c-1.5-1.4-1.5-3.8,0.2-5c1.5-1.3,4.1-1.1,5.3,0.5c0.7,1.1,1.7,1.6,2.8,2.2c1.3,0.6,2,1.7,2.1,3
		c0,1.7-1,2.7-2.3,3.5c-0.5,0.3-1,0.5-1.5,0.8c-0.8,0.6-0.8,1.3,0,1.7c0.7,0.5,1.3,0.6,1.8,1.1c2.6,1.6,2.5,4.6-0.2,6.1
		c-0.5,0.3-1,0.5-1.5,0.8s-0.8,0.6-1,1.1c-1,1.4-3.1,2.2-4.6,1.4c-1.8-0.8-2.6-2.5-2-4.2c0.3-0.8,0.8-1.3,1.5-1.7
		c0.7-0.5,0.7-0.6,0-1.1c-1.2-0.8-2.1-1.4-2.5-2.8c-0.5-1.9-0.2-3.6,1.5-4.9c0.2-0.2,0.3-0.2,0.5-0.3c0.3-0.3,1-0.5,1-0.9
		C387.3,355.1,386.7,355.1,386.4,354.8z"/>
	<path class="st2" d="M406.3,291.1c0.5-0.2,1-0.3,1.5-0.3c0.7,0,0.8-0.3,0.8-0.8c0-2,1.3-3.6,3.3-3.9c2.6-0.5,4.8,1.1,5,3.8
		c0,0.6,0.3,0.8,0.8,0.8c1.5,0,2.6,0.5,3.5,1.7c0.5,0.6,0.5,0.8,0.5,2.2c0,2.5-1,3.6-3.6,3.9c-0.7,0-1,0.3-1,0.9c0,2-1.7,3.8-4,3.9
		c-2.5,0-4.3-1.4-4.3-3.8c0-0.6-0.3-0.9-1-0.8c-2,0.2-3.6-1.3-4.1-3.1C403.7,293.8,404.7,291.9,406.3,291.1z"/>
	<path class="st1" d="M442.8,342.4c1.5-1.6,4.1-1.6,5.8-0.2c0.5,0.5,0.8,0.3,1.2,0c1.7-1.6,4.1-1.7,5.8-0.2c1.7,1.4,1.8,3.9,0.2,5.5
		c-0.5,0.5-0.5,0.8,0,1.1c1.3,1.1,1.7,2.8,1,4.2c-0.7,1.4-2.1,2.4-4.3,2.4c-0.5,0-1.5-0.3-2.1-0.9c-0.5-0.6-0.8-0.5-1.5,0
		c-2.1,2-5.8,1.3-6.8-1.6c-0.5-1.4-0.2-2.8,1-3.9c0.5-0.5,0.5-0.6,0-1.1C441.3,346.5,441.3,344.1,442.8,342.4z"/>
	<path class="st4" d="M445.4,403.5c0-0.8,0.5-1.3,1.3-1.6c4-2.2,7.9-4.4,12-6.6c0.2-0.2,0.5-0.3,0.8-0.3c1.3-0.5,2.5,0.2,2.5,1.4
		c0,2,0,4.2,0,6.3v0.8l0,0c0,2.5,0,4.9,0,7.2c0,1.1-1.3,1.9-2.6,1.3c-0.8-0.5-1.5-0.8-2.3-1.3c-3.5-1.9-6.9-3.8-10.4-5.7
		C446.1,404.7,445.4,404.3,445.4,403.5z"/>
	<path class="st3" d="M357.8,321.4L357.8,321.4c0-2.4,0-4.6,0-6.9c0-1.6,1.3-2.4,2.8-1.6c0.3,0.2,0.5,0.3,0.8,0.5
		c4,2,7.8,4.2,11.7,6.4c1.5,0.8,1.7,2.2,0,3.1c-4.1,2.2-8.3,4.6-12.4,6.7c-0.3,0.2-0.5,0.3-0.8,0.3c-1.2,0.3-2.1-0.3-2.1-1.6
		c0-1.9,0-3.8,0-5.7C357.8,322.3,357.8,321.9,357.8,321.4z"/>
	<path class="st3" d="M345.9,376L345.9,376c0-2.4,0-4.6,0-6.9c0-1.6,1.3-2.4,2.8-1.6c0.3,0.2,0.5,0.3,0.8,0.5c4,2,7.8,4.2,11.7,6.4
		c1.5,0.8,1.7,2.2,0,3.1c-4.1,2.2-8.3,4.6-12.4,6.7c-0.3,0.2-0.5,0.3-0.8,0.3c-1.2,0.3-2.1-0.3-2.1-1.6c0-1.9,0-3.8,0-5.7
		C345.9,377,345.9,376.5,345.9,376z"/>
	<path class="st3" d="M414.4,336.6c0.2-3.8,3.5-6.9,7.8-6.7c4.1,0,7.3,3.3,7.3,7.2c0,3.8-3.8,7.1-7.8,6.7
		C417.5,343.7,414.4,340.5,414.4,336.6z"/>
	<path class="st1" d="M382.7,395c0-3.8,3.3-6.9,7.4-6.9c4.1,0,7.6,3,7.6,6.9c0,3.8-3.3,6.9-7.4,6.9
		C386.2,401.9,382.7,398.8,382.7,395z"/>
	<path class="st1" d="M375.2,277.3c0-3.8,3.3-6.9,7.4-6.9s7.6,3,7.6,6.9c0,3.8-3.3,6.9-7.4,6.9C378.7,284.2,375.2,281.1,375.2,277.3z
		"/>
	<path class="st0" d="M419.7,314.5"/>
	<path class="st3" d="M448.7,440.1L448.7,440.1c0,2.4,0,4.6,0,6.9c0,1.6-1.3,2.4-2.8,1.6c-0.3-0.2-0.5-0.3-0.8-0.5
		c-4-2-7.8-4.2-11.7-6.4c-1.5-0.8-1.7-2.2,0-3.1c4.1-2.2,8.3-4.6,12.4-6.7c0.3-0.2,0.5-0.3,0.8-0.3c1.2-0.3,2.1,0.3,2.1,1.6
		c0,1.9,0,3.8,0,5.7C448.7,439.1,448.7,439.6,448.7,440.1z"/>
	<path class="st3" d="M362.5,433.2L362.5,433.2c0,2.4,0,4.6,0,6.9c0,1.6-1.3,2.4-2.8,1.6c-0.3-0.2-0.5-0.3-0.8-0.5
		c-4-2-7.8-4.2-11.7-6.4c-1.5-0.8-1.7-2.2,0-3.1c4.1-2.2,8.3-4.6,12.4-6.7c0.3-0.2,0.5-0.3,0.8-0.3c1.2-0.3,2.1,0.3,2.1,1.6
		c0,1.9,0,3.8,0,5.7C362.5,432.2,362.5,432.7,362.5,433.2z"/>
	<path class="st1" d="M398.1,451.2c0,3.8-3.3,6.9-7.4,6.9c-4.1,0-7.6-3-7.6-6.9c0-3.8,3.3-6.9,7.4-6.9S398.1,447.4,398.1,451.2z"/>
	<path class="st0" d="M379.3,599"/>
	<animateTransform attributeType="xml" attributeName="transform" type="rotate" from="360 250 250" to="0 250 250" begin="0" dur="40s" additive="sum" repeatCount="indefinite" />
	<animateTransform id="o1" attributeType="xml" attributeName="transform" type="scale" from="1.8 1.8" to="3 3" begin="0s;0;o2.end" dur="20s" additive="sum"  />
	<animateTransform id="o2" attributeType="xml" attributeName="transform" type="scale" from="3 3" to="1.8 1.8" begin="o1.end" dur="20s" additive="sum"  />
</g>
</svg>
